<?xml version="1.0" encoding="utf-8"?>
<svg xmlns="http://www.w3.org/2000/svg" viewBox="0 0 500 500" xmlns:bx="https://boxy-svg.com">
  <text style="fill: rgb(51, 51, 51); font-family: &quot;Playwrite ES&quot;; font-size: 60px; white-space: pre;" x="520.685" y="168.213">mellys bouquets</text>
  <defs>
    <style bx:fonts="Playwrite ES">@import url(https://fonts.googleapis.com/css2?family=Playwrite+ES%3Aital%2Cwght%400%2C100..400&amp;display=swap);</style>
    <bx:export>
      <bx:file format="png" href="#object-0" path="mb-logo.png">
        <bx:variant scale="5" suffix="@5x"/>
      </bx:file>
    </bx:export>
  </defs>
  <g id="object-0">
    <g transform="matrix(0.241485, 0.126196, -0.10222, 0.195606, 7.917427, -42.97028)" style="transform-origin: 256px 256px;">
      <g>
        <path style="fill:#FFFFFF;" d="M387.621,85.54c-1.896-5.228-6.906-8.741-12.467-8.741c-0.743,0-1.481,0.061-2.216,0.187    l-16.009-2.608c-1.298-2.126-3.205-3.911-5.606-5.062c-0.209-0.1-0.421-0.194-0.634-0.283c-1.614-0.666-3.315-1.004-5.06-1.004    c-2.903,0-5.636,0.933-7.86,2.567c-1.714-2.857-4.501-5.095-7.997-6.06c-1.044-0.275-2.293-0.436-3.371-0.436    c-3.536,0-6.826,1.43-9.244,3.784l-5.439-0.889c-1.973-4.928-6.785-8.332-12.325-8.332c-0.299,0-0.65,0.013-0.949,0.034    c-0.164,0.012-0.329,0.028-0.493,0.046c-3.518,0.391-6.552,2.091-8.662,4.588l-4.857-0.791    c14.137-12.804,24.216-27.776,16.611-41.197c-4.155-7.331-11.181-11.536-19.28-11.536c-5.255,0-10.419,1.78-15.016,4.206    C262.541,5.976,255.838,0,246.061,0c-1.741,0-3.519,0.213-5.283,0.632c-4.809,1.144-8.852,4.262-11.381,8.779    c-6.536,11.671-1.952,35.772,3.33,54.696c-0.078,0.062-0.168,0.107-0.245,0.171l-15.14,5.778c-1.892-1.026-4.05-1.607-6.321-1.607    c-0.325,0-0.717,0.015-1.041,0.041c-0.24,0.018-0.48,0.044-0.718,0.077c-3.518,0.479-6.636,2.3-8.782,5.13    c-0.638,0.843-1.167,1.743-1.583,2.686c-1.927-1.073-4.133-1.677-6.445-1.677c-1.121,0-2.436,0.176-3.518,0.473    c-3.47,0.952-6.441,3.315-8.151,6.483c-0.474,0.878-0.843,1.804-1.105,2.756l-5.14,1.959c-2.309-1.798-5.186-2.814-8.165-2.814    c-2.666,0-5.242,0.79-7.449,2.286c-0.146,0.099-0.289,0.2-0.431,0.305c-2.844,2.107-4.613,5.098-5.184,8.316l-21.661,8.269    c-5.79,2.21-9.1,8.318-7.791,14.375c0.483,2.234,8.043,36.039,27.474,60.845c-0.95,0.518-1.837,1.161-2.637,1.921    c-2.535,2.411-3.949,5.771-3.901,9.27c0.261,18.909,7.268,37.789,19.299,53.074c-8.14,0.676-14.681,5.133-18.148,12.46    c-8.288,17.516,13.739,30.783,27.474,37.819l70.299,210.917c1.648,4.943,6.179,8.354,11.386,8.571    c0.175,0.006,0.349,0.01,0.523,0.01c5.002,0,9.55-2.98,11.534-7.609l34.038-79.496c1.582-0.259,3.119-0.823,4.52-1.683    c22.545-13.823,58.485-40.334,45.882-62.574c-3.928-6.931-10.426-11.067-17.967-11.498l1.987-4.633    c0.069-0.163,0.9-2.165,0.943-2.278l21.732-50.729c2.485-5.799,0.277-12.542-5.157-15.749c-0.511-0.302-7.242-4.208-19.835-8.53    c2.058-0.934,4.087-1.932,6.082-3.009c23.98-12.942,39.777-34.991,42.261-58.979c0.347-3.358-0.672-6.714-2.829-9.31    c-2.156-2.598-5.268-4.216-8.632-4.492c-2.838-0.231-5.733-0.349-8.6-0.349c-2.63,0-5.261,0.098-7.889,0.29    c2.044-8.831,3.15-17.285,3.734-24.41c20.873-23.337,27.722-58.103,29.62-71.028c0.045-0.09,0.088-0.18,0.13-0.271    C388.676,92.445,388.83,88.837,387.621,85.54z"/>
      </g>
      <g>
        <g>
          <g>
            <path style="fill:#96A033;" d="M239.558,276.593c-8.318-19.692-9.796-42.198-4.125-62.809      c5.671-20.611,18.454-39.193,35.675-51.858c12.363,17.592,12.913,40.475,5.334,60.597      C268.863,242.647,253.152,259.934,239.558,276.593z"/>
          </g>
          <g>
            <path style="fill:#96A033;" d="M240.174,277.432c-7.577-11.212-22.683-13.566-35.288-18.49      c-27.687-10.815-47.472-39.356-47.884-69.078c21.402,1.379,41.092,11.936,54.844,28.394      C225.598,234.715,233.955,256.907,240.174,277.432z"/>
          </g>
          <g>
            <path style="fill:#96A033;" d="M269.771,270.654c6.645-20.318,20.298-38.27,38.102-50.102      c17.804-11.832,39.643-17.465,60.949-15.722c-2.215,21.388-16.816,39.015-35.739,49.227      C314.16,264.269,290.961,267.004,269.771,270.654z"/>
          </g>
          <g>
            <g>
              <path style="fill:#4A1633;" d="M260.19,387.963c-10.883-69.075-27.612-137.735-49.725-204.073l1.984-0.662       c22.148,66.447,38.905,135.221,49.807,204.409L260.19,387.963z"/>
            </g>
            <g>
              <path style="fill:#4A1633;" d="M256.704,399.032l-2.092-0.053c1.382-53.961,7.273-108.193,17.515-161.192l2.053,0.396       C263.962,291.07,258.082,345.188,256.704,399.032z"/>
            </g>
            <g>
              <path style="fill:#4A1633;" d="M261.002,382.591l-2.086-0.16c5.013-65.133,18.733-129.34,40.782-190.838l1.969,0.705       C279.682,253.621,266,317.645,261.002,382.591z"/>
            </g>
          </g>
          <g>
            <g>
              <path style="fill:#FF4B4B;" d="M301.076,177.701c-68.75-6.949-37.029-104.82-37.029-104.82l55.277,26.01l55.49-7.938       C374.814,90.953,365.73,184.264,301.076,177.701z"/>
            </g>
            <g style="opacity:0.65;">
              <path style="fill:#DC3B3F;" d="M301.076,177.701c-68.75-6.949-37.029-104.82-37.029-104.82l55.277,26.01l55.49-7.938       C374.814,90.953,365.73,184.264,301.076,177.701z"/>
            </g>
            <g>
              <path style="fill:#FF4B4B;" d="M374.814,90.953c0,0-20.719,7.554-40.132,18.895c-0.436,0.238-0.865,0.503-1.284,0.75       c-2.822,1.686-5.622,3.451-8.305,5.279c-0.753,0.064-1.497,0.111-2.248,0.132c-1.802,0.073-3.605-0.051-5.411-0.328       c-0.467-0.061-0.941-0.149-1.415-0.236c-4.197-0.833-8.394-2.494-12.485-4.704c-0.517-0.285-1.035-0.57-1.526-0.863       c-20.657-11.905-37.962-36.998-37.962-36.998l34.858,5.677l1.474,0.247l23.851,3.897l1.398,0.227l17.429,2.839l1.432,0.245       L374.814,90.953z"/>
            </g>
            <g style="opacity:0.38;">
              <path style="fill:#4A1633;" d="M374.814,90.953c0,0-20.719,7.554-40.132,18.895c-0.436,0.238-0.865,0.503-1.284,0.75       c-2.822,1.686-5.622,3.451-8.305,5.279c-0.753,0.064-1.497,0.111-2.248,0.132c-1.802,0.073-3.605-0.051-5.411-0.328       c-0.467-0.061-0.941-0.149-1.415-0.236c-4.197-0.833-8.394-2.494-12.485-4.704c-0.517-0.285-1.035-0.57-1.526-0.863       c-20.657-11.905-37.962-36.998-37.962-36.998l34.858,5.677l1.474,0.247l23.851,3.897l1.398,0.227l17.429,2.839l1.432,0.245       L374.814,90.953z"/>
            </g>
            <g>
              <path style="fill:#4A1633;" d="M285.811,175.203c-0.088,0-0.178-0.017-0.264-0.051c-0.367-0.146-0.546-0.562-0.4-0.928       c0.174-0.437,17.605-43.806,39.023-58.589l0.519-0.348c21.268-14.504,49.597-24.903,49.881-25.006       c0.367-0.14,0.78,0.056,0.915,0.427c0.136,0.37-0.056,0.78-0.427,0.915c-0.281,0.104-28.447,10.443-49.562,24.843l-0.515,0.346       c-21.062,14.536-38.335,57.508-38.507,57.939C286.363,175.032,286.095,175.203,285.811,175.203z"/>
            </g>
            <g>
              <g>
                <g>
                  <path style="fill:#4A1633;" d="M303.535,110.741c-0.517-0.285-1.035-0.57-1.526-0.863l-3.104-31.321l-0.558-5.66         c-0.035-0.411,0.26-0.749,0.654-0.793c0.385-0.027,0.732,0.251,0.776,0.645l0.602,6.054L303.535,110.741z"/>
                </g>
              </g>
              <g>
                <g>
                  <path style="fill:#4A1633;" d="M317.434,115.681c-0.467-0.061-0.941-0.149-1.415-0.236l8.21-32.744l1.148-4.611         c0.084-0.389,0.477-0.629,0.857-0.528c0.397,0.11,0.62,0.494,0.52,0.873l-1.127,4.492L317.434,115.681z"/>
                </g>
              </g>
              <g>
                <g>
                  <path style="fill:#4A1633;" d="M333.484,110.658c-0.314-0.173-0.454-0.558-0.315-0.898l11.458-27.848         c0.15-0.364,0.568-0.539,0.933-0.389c0.368,0.177,0.538,0.57,0.388,0.934l-11.458,27.848         c-0.15,0.364-0.568,0.539-0.933,0.389C333.532,110.682,333.508,110.671,333.484,110.658z"/>
                </g>
              </g>
            </g>
          </g>
          <g>
            <g>
              <path style="fill:#FF4B4B;" d="M220.446,187.401c-62.942,28.516-84.66-72.049-84.66-72.049l60.864-5.267l43.999-34.731       C240.648,75.354,279.653,160.607,220.446,187.401z"/>
            </g>
            <g>
              <path style="fill:#DC3B3F;" d="M240.648,75.354c0,0-14.124,16.937-25.216,36.493c-0.257,0.425-0.495,0.869-0.733,1.294       c-1.594,2.876-3.129,5.807-4.531,8.736c-0.619,0.433-1.239,0.847-1.878,1.243c-1.522,0.968-3.143,1.767-4.844,2.434       c-0.434,0.181-0.888,0.344-1.342,0.507c-4.048,1.387-8.511,2.059-13.159,2.201c-0.591,0.013-1.181,0.027-1.753,0.02       c-23.842,0.078-51.408-12.93-51.408-12.93l32.995-12.596l1.399-0.527l22.583-8.607l1.323-0.506l16.497-6.298l1.361-0.507       L240.648,75.354z"/>
            </g>
            <g>
              <path style="fill:#4A1633;" d="M205.632,193.004c-0.348,0-0.653-0.255-0.706-0.609c-0.068-0.465-6.774-46.723,4.323-70.264       l0.273-0.559c11.107-23.225,30.384-46.444,30.577-46.677c0.254-0.303,0.705-0.342,1.007-0.091       c0.303,0.253,0.344,0.703,0.091,1.007c-0.192,0.23-19.356,23.317-30.384,46.374l-0.271,0.555       c-10.913,23.149-4.271,68.983-4.202,69.443c0.058,0.391-0.212,0.754-0.602,0.812       C205.702,193.001,205.667,193.004,205.632,193.004z"/>
            </g>
            <g>
              <g>
                <g>
                  <path style="fill:#4A1633;" d="M188.947,128.262c-0.591,0.013-1.181,0.027-1.753,0.02l-18.413-25.526l-3.325-4.614         c-0.236-0.338-0.151-0.778,0.168-1.014c0.319-0.217,0.759-0.15,0.995,0.168l3.561,4.933L188.947,128.262z"/>
                </g>
              </g>
              <g>
                <g>
                  <path style="fill:#4A1633;" d="M203.447,125.553c-0.434,0.181-0.888,0.344-1.342,0.507l-9.344-32.439l-1.322-4.564         c-0.123-0.379,0.097-0.784,0.476-0.887c0.398-0.104,0.784,0.116,0.888,0.495l1.282,4.45L203.447,125.553z"/>
                </g>
              </g>
              <g>
                <g>
                  <path style="fill:#4A1633;" d="M214.804,113.149c-0.358,0.008-0.673-0.255-0.723-0.618l-4.076-29.836         c-0.053-0.39,0.22-0.751,0.611-0.805c0.407-0.032,0.751,0.223,0.805,0.613l4.076,29.836c0.053,0.39-0.22,0.751-0.611,0.805         C214.857,113.146,214.831,113.149,214.804,113.149z"/>
                </g>
              </g>
            </g>
          </g>
          <g>
            <g>
              <path style="fill:#FF4B4B;" d="M284.783,245.936c-69.028,3.154-51.923-98.298-51.923-98.298l58.48,17.669l53.738-15.948       C345.078,149.359,349.703,242.997,284.783,245.936z"/>
            </g>
            <g>
              <path style="fill:#DC3B3F;" d="M345.078,149.359c0,0-19.396,10.495-36.946,24.547c-0.397,0.299-0.782,0.623-1.16,0.93       c-2.546,2.08-5.058,4.234-7.446,6.434c-0.736,0.173-1.465,0.328-2.205,0.458c-1.772,0.335-3.574,0.476-5.401,0.465       c-0.47,0.007-0.952-0.01-1.434-0.027c-4.273-0.212-8.668-1.243-13.037-2.833c-0.553-0.207-1.107-0.413-1.636-0.631       c-22.172-8.765-42.953-31.064-42.953-31.064l35.314,0.531l1.494,0.029l24.165,0.376l1.416,0.02l17.657,0.266l1.452,0.033       L345.078,149.359z"/>
            </g>
            <g>
              <path style="fill:#4A1633;" d="M272.019,245.609c-0.041,0-0.083-0.004-0.124-0.011c-0.389-0.068-0.648-0.438-0.581-0.827       c0.326-1.863,8.213-45.84,27.264-63.606l0.461-0.418c18.925-17.452,45.435-31.873,45.7-32.017       c0.349-0.186,0.78-0.058,0.969,0.289c0.188,0.347,0.059,0.78-0.289,0.969c-0.264,0.143-26.62,14.48-45.408,31.807l-0.458,0.416       c-18.703,17.441-26.751,62.355-26.83,62.807C272.66,245.365,272.359,245.609,272.019,245.609z"/>
            </g>
            <g>
              <g>
                <g>
                  <path style="fill:#4A1633;" d="M277.448,179.334c-0.553-0.207-1.107-0.413-1.636-0.631l-7.639-30.533l-1.378-5.518         c-0.094-0.401,0.148-0.779,0.532-0.88c0.377-0.083,0.761,0.142,0.862,0.525l1.479,5.901L277.448,179.334z"/>
                </g>
              </g>
              <g>
                <g>
                  <path style="fill:#4A1633;" d="M291.919,182.193c-0.47,0.007-0.952-0.01-1.434-0.027l3.346-33.592l0.464-4.729         c0.026-0.397,0.38-0.692,0.771-0.648c0.408,0.051,0.685,0.398,0.641,0.788l-0.459,4.608L291.919,182.193z"/>
                </g>
              </g>
              <g>
                <g>
                  <path style="fill:#4A1633;" d="M307.065,174.882c-0.336-0.125-0.531-0.486-0.442-0.842l7.273-29.221         c0.095-0.382,0.483-0.616,0.866-0.521c0.39,0.122,0.615,0.486,0.52,0.867l-7.273,29.221         c-0.095,0.382-0.483,0.616-0.866,0.521C307.116,174.9,307.09,174.892,307.065,174.882z"/>
                </g>
              </g>
            </g>
          </g>
        </g>
        <g>
          <g>
            <path style="fill:#FF938E;" d="M346.417,287.449l-21.9,51.12c0,0.021,0,0.021,0,0.021l-0.774,1.841v0.021l-17.173,40.055      l-0.648,1.548l-26.355,61.579l-0.607,1.422l-23.678,55.283l-32.463-97.367l-0.669-2.029L182.054,280.63l-0.105-0.314      c0,0,0.565-0.251,1.694-0.669c7.174-2.698,36.771-12.571,82.328-10.73c5.752,0.23,11.19,0.648,16.336,1.192      c0.774,0.063,1.548,0.146,2.301,0.23C325.187,274.92,346.417,287.449,346.417,287.449z"/>
          </g>
          <g>
            <g>
              <g>
                <path style="fill:#4A1633;" d="M306.571,380.508l-0.648,1.548c-14.014-19.285-29.911-37.169-47.564-53.484        c-25.979-24.012-50.932-39.721-76.304-47.941l-0.105-0.314c0,0,0.565-0.251,1.694-0.669        c25.163,8.388,49.949,24.075,75.697,47.878C276.848,343.715,292.64,361.411,306.571,380.508z"/>
              </g>
            </g>
            <g>
              <g>
                <path style="fill:#4A1633;" d="M324.517,338.57c0,0.021,0,0.021,0,0.021l-0.774,1.841        c-6.819-17.026-15.144-33.425-24.975-49.091c-4.685-7.467-9.894-15.039-16.461-21.23c0.774,0.063,1.548,0.146,2.301,0.23        c6.045,6.045,10.94,13.198,15.374,20.247C309.604,305.919,317.782,321.941,324.517,338.57z"/>
              </g>
            </g>
            <g>
              <g>
                <path style="fill:#4A1633;" d="M279.567,443.634l-0.607,1.422c-16.712-16.482-35.6-30.643-56.14-42.084l-0.669-2.029        C243.172,412.51,262.479,426.859,279.567,443.634z"/>
              </g>
            </g>
          </g>
        </g>
        <g>
          <path style="fill:#FF4B4B;" d="M309.954,375.147c0,0-2.279-25.396-16.055-22.12c-13.776,3.276,4.919,60.376,4.919,60.376     s50.03-30.674,41.523-45.687C331.833,352.703,309.954,375.147,309.954,375.147z"/>
        </g>
        <g>
          <path style="fill:#FF4B4B;" d="M259.397,35.852c0,0-2.279-25.396-16.055-22.12c-13.776,3.276,4.919,60.376,4.919,60.376     s50.03-30.674,41.523-45.687C281.277,13.408,259.397,35.852,259.397,35.852z"/>
        </g>
        <g>
          <path style="fill:#FF4B4B;" d="M184.25,262.242c0,0-21.244-14.101-27.301-1.302c-6.057,12.799,50.193,33.912,50.193,33.912     s7.344-58.223-9.691-60.971C180.415,231.133,184.25,262.242,184.25,262.242z"/>
        </g>
      </g>
    </g>
    <text style="fill: rgb(51, 51, 51); font-family: &quot;Playwrite ES&quot;; font-size: 60px; white-space: pre; stroke-width: 1;" x="27.492" y="249.284">mellys</text>
    <text style="fill: rgb(51, 51, 51); font-family: &quot;Playwrite ES&quot;; font-size: 60px; white-space: pre; stroke-width: 1;" x="42.364" y="320.591">bouquets</text>
  </g>
</svg>